<?xml version="1.0" standalone="no"?>
<!DOCTYPE svg PUBLIC "-//W3C//DTD SVG 20010904//EN"
 "http://www.w3.org/TR/2001/REC-SVG-20010904/DTD/svg10.dtd">
<svg version="1.0" xmlns="http://www.w3.org/2000/svg"
 width="128.000000pt" height="128.000000pt" viewBox="0 0 128.000000 128.000000"
 preserveAspectRatio="xMidYMid meet">
<metadata>
Created by potrace 1.14, written by Peter Selinger 2001-2017
</metadata>
<g transform="translate(0.000000,128.000000) scale(0.100000,-0.100000)"
fill="#000000" stroke="none">
<path d="M1060 1168 c-25 -6 -87 -11 -138 -12 -93 -1 -93 -1 -110 -31 -9 -16
-27 -39 -38 -50 -12 -11 -29 -35 -38 -52 -18 -36 -36 -42 -56 -18 -7 9 -15 13
-18 10 -3 -3 -10 -1 -16 4 -42 34 -254 63 -296 41 -9 -5 -30 -11 -46 -13 -21
-2 -35 -13 -49 -39 -11 -19 -42 -63 -68 -98 -27 -35 -66 -100 -87 -144 -21
-45 -50 -90 -64 -100 -39 -28 -33 -51 27 -90 59 -40 111 -90 159 -155 18 -25
58 -59 87 -77 30 -17 64 -43 75 -56 12 -14 32 -32 46 -41 27 -17 37 -20 175
-43 58 -10 103 -24 125 -40 51 -34 185 -67 235 -57 22 4 63 8 90 8 94 2 121
13 140 55 9 20 32 52 51 69 l34 33 0 329 c0 299 -2 331 -17 349 -31 35 -88
139 -114 208 -9 24 -20 25 -89 10z m-415 -828 c3 -5 1 -10 -4 -10 -6 0 -11 5
-11 10 0 6 2 10 4 10 3 0 8 -4 11 -10z m5 -54 c0 -2 -7 -7 -16 -10 -8 -3 -12
-2 -9 4 6 10 25 14 25 6z"/>
</g>
</svg>
